<svg width="24" height="25" viewBox="0 0 24 25" fill="none" xmlns="http://www.w3.org/2000/svg">
<path d="M21.6328 6.84628C21.3187 6.11886 20.8657 5.45969 20.2992 4.90565C19.7323 4.34996 19.064 3.90837 18.3305 3.60487C17.5699 3.28892 16.7541 3.12719 15.9305 3.12909C14.775 3.12909 13.6477 3.4455 12.668 4.04315C12.4336 4.18612 12.2109 4.34315 12 4.51425C11.7891 4.34315 11.5664 4.18612 11.332 4.04315C10.3523 3.4455 9.225 3.12909 8.06953 3.12909C7.2375 3.12909 6.43125 3.28847 5.66953 3.60487C4.93359 3.90956 4.27031 4.34784 3.70078 4.90565C3.13359 5.45906 2.6805 6.1184 2.36719 6.84628C2.04141 7.60331 1.875 8.40722 1.875 9.23456C1.875 10.015 2.03438 10.8283 2.35078 11.6557C2.61563 12.3471 2.99531 13.0642 3.48047 13.7885C4.24922 14.9346 5.30625 16.1299 6.61875 17.3416C8.79375 19.3502 10.9477 20.7377 11.0391 20.7939L11.5945 21.1502C11.8406 21.3072 12.157 21.3072 12.4031 21.1502L12.9586 20.7939C13.05 20.7353 15.2016 19.3502 17.3789 17.3416C18.6914 16.1299 19.7484 14.9346 20.5172 13.7885C21.0023 13.0642 21.3844 12.3471 21.6469 11.6557C21.9633 10.8283 22.1227 10.015 22.1227 9.23456C22.125 8.40722 21.9586 7.60331 21.6328 6.84628V6.84628Z" fill="#747474"/>
</svg>
