<svg width="24" height="25" viewBox="0 0 24 25" fill="none" xmlns="http://www.w3.org/2000/svg">
<path d="M21.6305 16.6502H7.67345L8.37423 15.2228L20.018 15.2017C20.4117 15.2017 20.7492 14.9205 20.8195 14.5314L22.432 5.50565C22.4742 5.26893 22.4109 5.02518 22.2563 4.84003C22.1798 4.7489 22.0844 4.6755 21.9768 4.62491C21.8691 4.57432 21.7518 4.54776 21.6328 4.54706L6.82032 4.49784L6.69376 3.90253C6.61407 3.52284 6.27189 3.24628 5.88282 3.24628H2.26173C2.04231 3.24628 1.83187 3.33344 1.67671 3.4886C1.52155 3.64376 1.43439 3.8542 1.43439 4.07362C1.43439 4.29305 1.52155 4.50348 1.67671 4.65864C1.83187 4.8138 2.04231 4.90096 2.26173 4.90096H5.21251L5.76564 7.53065L7.12736 14.1236L5.37423 16.9853C5.28319 17.1082 5.22835 17.2541 5.21593 17.4066C5.2035 17.559 5.23398 17.7118 5.30392 17.8478C5.44454 18.1267 5.72814 18.3025 6.0422 18.3025H7.51407C7.20029 18.7193 7.0308 19.2269 7.03126 19.7486C7.03126 21.0752 8.10939 22.1533 9.43595 22.1533C10.7625 22.1533 11.8406 21.0752 11.8406 19.7486C11.8406 19.226 11.6672 18.7174 11.3578 18.3025H15.1336C14.8198 18.7193 14.6503 19.2269 14.6508 19.7486C14.6508 21.0752 15.7289 22.1533 17.0555 22.1533C18.382 22.1533 19.4602 21.0752 19.4602 19.7486C19.4602 19.226 19.2867 18.7174 18.9774 18.3025H21.6328C22.0875 18.3025 22.4602 17.9322 22.4602 17.4752C22.4588 17.256 22.3708 17.0462 22.2154 16.8917C22.0599 16.7371 21.8497 16.6503 21.6305 16.6502V16.6502ZM7.16486 6.12909L20.6602 6.17362L19.3383 13.5752L8.73751 13.5939L7.16486 6.12909ZM9.43595 20.4892C9.02814 20.4892 8.69532 20.1564 8.69532 19.7486C8.69532 19.3408 9.02814 19.008 9.43595 19.008C9.84376 19.008 10.1766 19.3408 10.1766 19.7486C10.1766 19.945 10.0985 20.1334 9.95965 20.2723C9.82076 20.4112 9.63237 20.4892 9.43595 20.4892V20.4892ZM17.0555 20.4892C16.6477 20.4892 16.3149 20.1564 16.3149 19.7486C16.3149 19.3408 16.6477 19.008 17.0555 19.008C17.4633 19.008 17.7961 19.3408 17.7961 19.7486C17.7961 19.945 17.7181 20.1334 17.5792 20.2723C17.4403 20.4112 17.2519 20.4892 17.0555 20.4892V20.4892Z" fill="#292D32"/>
</svg>
