<svg width="23" height="25" viewBox="0 0 23 25" fill="none" xmlns="http://www.w3.org/2000/svg">
<path d="M12.8867 21.6763C13.0454 21.5951 13.1791 21.4691 13.2728 21.3127C13.3665 21.1563 13.4163 20.9757 13.4167 20.7913V15.4713C13.4167 15.2093 13.5173 14.9573 13.6975 14.7713L19.5634 8.71727C19.7411 8.53425 19.8822 8.31628 19.9786 8.07597C20.075 7.83566 20.1248 7.57779 20.125 7.31727V4.76127C20.1245 4.63057 20.0993 4.50125 20.0508 4.38073C20.0024 4.2602 19.9316 4.15082 19.8426 4.05887C19.7536 3.96691 19.6481 3.89418 19.5321 3.84483C19.4161 3.79548 19.2919 3.77048 19.1667 3.77127H3.83333C3.30338 3.77127 2.875 4.21327 2.875 4.76127V7.31727C2.875 7.84227 3.07721 8.34627 3.43658 8.71727L9.30254 14.7713C9.39142 14.8627 9.462 14.9717 9.51021 15.0919C9.55841 15.2121 9.58326 15.341 9.58333 15.4713V21.7813C9.58333 22.5163 10.3327 22.9943 10.97 22.6653L12.8867 21.6763V21.6763Z" fill="black"/>
</svg>
