<svg width="24" height="25" viewBox="0 0 24 25" fill="none" xmlns="http://www.w3.org/2000/svg">
<path d="M12 22.1114C11.4694 22.1088 10.9612 21.8976 10.5851 21.5234C10.209 21.1491 9.99525 20.642 9.99 20.1114H13.99C13.9921 20.3788 13.9411 20.6439 13.84 20.8914C13.7107 21.1882 13.5127 21.4499 13.2623 21.6551C13.0119 21.8603 12.7164 22.003 12.4 22.0714H12.353C12.2368 22.0956 12.1186 22.109 12 22.1114ZM20 19.1114H4V17.1114L6 16.1114V10.6114C5.94732 9.20055 6.26594 7.80056 6.924 6.55143C7.24784 5.9787 7.68943 5.48114 8.21965 5.09158C8.74987 4.70202 9.35666 4.42931 10 4.29143V2.11143H14V4.29143C16.579 4.90543 18 7.14944 18 10.6114V16.1114L20 17.1114V19.1114Z" fill="#747474"/>
</svg>
