<svg width="23" height="24" viewBox="0 0 23 24" fill="none" xmlns="http://www.w3.org/2000/svg">
<path d="M20.8969 10.0415H20.125V10H11.5V14H16.916C16.1259 16.3285 14.0027 18 11.5 18C8.32455 18 5.74999 15.3135 5.74999 12C5.74999 8.6865 8.32455 6 11.5 6C12.9658 6 14.2993 6.577 15.3146 7.5195L18.0253 4.691C16.3137 3.0265 14.0242 2 11.5 2C6.20759 2 1.91666 6.4775 1.91666 12C1.91666 17.5225 6.20759 22 11.5 22C16.7924 22 21.0833 17.5225 21.0833 12C21.0833 11.3295 21.0172 10.675 20.8969 10.0415Z" fill="#FFC107"/>
<path d="M3.02164 7.3455L6.17024 9.755C7.0222 7.554 9.08549 6 11.5 6C12.9658 6 14.2993 6.577 15.3147 7.5195L18.0253 4.691C16.3137 3.0265 14.0243 2 11.5 2C7.81905 2 4.62685 4.1685 3.02164 7.3455Z" fill="#FF3D00"/>
<path d="M11.5 22C13.9754 22 16.2246 21.0115 17.9252 19.404L14.9591 16.785C13.9646 17.5742 12.7494 18.001 11.5 18C9.00738 18 6.8909 16.3415 6.09357 14.027L2.96844 16.5395C4.55449 19.778 7.77545 22 11.5 22Z" fill="#4CAF50"/>
<path d="M20.8969 10.0415H20.125V10H11.5V14H16.916C16.5381 15.1082 15.8572 16.0766 14.9577 16.7855L14.9591 16.7845L17.9251 19.4035C17.7153 19.6025 21.0833 17 21.0833 12C21.0833 11.3295 21.0172 10.675 20.8969 10.0415Z" fill="#1976D2"/>
</svg>
