<svg width="24" height="25" viewBox="0 0 24 25" fill="none" xmlns="http://www.w3.org/2000/svg">
<path d="M21.6328 6.71727C21.3187 5.98985 20.8657 5.33068 20.2992 4.77664C19.7323 4.22095 19.064 3.77935 18.3305 3.47586C17.5699 3.15991 16.7541 2.99818 15.9305 3.00008C14.775 3.00008 13.6477 3.31648 12.668 3.91414C12.4336 4.05711 12.2109 4.21414 12 4.38523C11.7891 4.21414 11.5664 4.05711 11.332 3.91414C10.3523 3.31648 9.225 3.00008 8.06953 3.00008C7.2375 3.00008 6.43125 3.15945 5.66953 3.47586C4.93359 3.78055 4.27031 4.21883 3.70078 4.77664C3.13359 5.33005 2.6805 5.98938 2.36719 6.71727C2.04141 7.4743 1.875 8.2782 1.875 9.10555C1.875 9.88601 2.03438 10.6993 2.35078 11.5266C2.61563 12.218 2.99531 12.9352 3.48047 13.6595C4.24922 14.8055 5.30625 16.0009 6.61875 17.2126C8.79375 19.2212 10.9477 20.6087 11.0391 20.6649L11.5945 21.0212C11.8406 21.1782 12.157 21.1782 12.4031 21.0212L12.9586 20.6649C13.05 20.6063 15.2016 19.2212 17.3789 17.2126C18.6914 16.0009 19.7484 14.8055 20.5172 13.6595C21.0023 12.9352 21.3844 12.218 21.6469 11.5266C21.9633 10.6993 22.1227 9.88601 22.1227 9.10555C22.125 8.2782 21.9586 7.4743 21.6328 6.71727V6.71727Z" fill="#FAFF00"/>
</svg>
