<svg width="92" height="64" viewBox="0 0 92 64" fill="none" xmlns="http://www.w3.org/2000/svg">
<g filter="url(#filter0_ii_22_849)">
<path d="M4.29022 54.6859H72.9952C74.629 54.6859 76.2468 54.4539 77.7562 54.003C79.2656 53.5521 80.6371 52.8913 81.7923 52.0581C82.9476 51.225 83.864 50.236 84.4892 49.1474C85.1144 48.0589 85.4362 46.8923 85.4362 45.7141C85.4362 44.5359 85.1144 43.3692 84.4892 42.2807C83.864 41.1922 82.9476 40.2031 81.7923 39.37C80.6371 38.5369 79.2656 37.876 77.7562 37.4251C76.2468 36.9743 74.629 36.7422 72.9952 36.7422" stroke="#CAC8CB" stroke-width="6.6875" stroke-linecap="round"/>
</g>
<path d="M12.288 63.8243C14.9248 63.8243 17.0623 62.2828 17.0623 60.3813C17.0623 58.4798 14.9248 56.9383 12.288 56.9383C9.65127 56.9383 7.51376 58.4798 7.51376 60.3813C7.51376 62.2828 9.65127 63.8243 12.288 63.8243Z" fill="#4381C4"/>
<path d="M12.288 63.8243C14.9248 63.8243 17.0623 62.2828 17.0623 60.3813C17.0623 58.4798 14.9248 56.9383 12.288 56.9383C9.65127 56.9383 7.51376 58.4798 7.51376 60.3813C7.51376 62.2828 9.65127 63.8243 12.288 63.8243Z" fill="url(#paint0_radial_22_849)"/>
<path d="M12.288 63.8243C14.9248 63.8243 17.0623 62.2828 17.0623 60.3813C17.0623 58.4798 14.9248 56.9383 12.288 56.9383C9.65127 56.9383 7.51376 58.4798 7.51376 60.3813C7.51376 62.2828 9.65127 63.8243 12.288 63.8243Z" fill="url(#paint1_radial_22_849)"/>
<path d="M12.288 63.8243C14.9248 63.8243 17.0623 62.2828 17.0623 60.3813C17.0623 58.4798 14.9248 56.9383 12.288 56.9383C9.65127 56.9383 7.51376 58.4798 7.51376 60.3813C7.51376 62.2828 9.65127 63.8243 12.288 63.8243Z" fill="url(#paint2_radial_22_849)"/>
<g filter="url(#filter1_f_22_849)">
<path d="M12.2881 62.8165C14.153 62.8165 15.6648 61.7262 15.6648 60.3813C15.6648 59.0364 14.153 57.9462 12.2881 57.9462C10.4231 57.9462 8.91132 59.0364 8.91132 60.3813C8.91132 61.7262 10.4231 62.8165 12.2881 62.8165Z" fill="#4880CB"/>
</g>
<g filter="url(#filter2_i_22_849)">
<path fill-rule="evenodd" clip-rule="evenodd" d="M19.5651 30.9555C19.8237 30.9555 20.0717 30.8814 20.2545 30.7495C20.4374 30.6177 20.5401 30.4388 20.5401 30.2523V23.1086C20.5401 22.9221 20.4374 22.7433 20.2545 22.6114C20.0717 22.4795 19.8237 22.4055 19.5651 22.4055H5.1351C4.87651 22.4055 4.62851 22.3314 4.44567 22.1995C4.26282 22.0677 4.1601 21.8888 4.1601 21.7023V20.7648C4.1601 20.6725 4.18531 20.5811 4.23431 20.4958C4.28331 20.4105 4.35513 20.333 4.44567 20.2677C4.5362 20.2024 4.64369 20.1506 4.76198 20.1152C4.88027 20.0799 5.00706 20.0617 5.1351 20.0617H19.5651C19.8237 20.0617 20.0717 19.9876 20.2545 19.8558C20.4374 19.7239 20.5401 19.5451 20.5401 19.3586V12.25C20.5401 12.0635 20.6428 11.8847 20.8257 11.7528C21.0085 11.621 21.2565 11.5469 21.5151 11.5469H22.8151C23.0737 11.5469 23.3217 11.621 23.5045 11.7528C23.6874 11.8847 23.7901 12.0635 23.7901 12.25V19.3586C23.7901 19.5451 23.8928 19.7239 24.0757 19.8558C24.2585 19.9876 24.5065 20.0617 24.7651 20.0617H37.5896C37.8482 20.0617 38.0962 19.9876 38.279 19.8558C38.4619 19.7239 38.5646 19.5451 38.5646 19.3586V12.25C38.5646 12.0635 38.6673 11.8847 38.8502 11.7528C39.033 11.621 39.281 11.5469 39.5396 11.5469H40.8396C41.0982 11.5469 41.3462 11.621 41.529 11.7528C41.7119 11.8847 41.8146 12.0635 41.8146 12.25V19.3586C41.8146 19.5451 41.9173 19.7239 42.1002 19.8558C42.283 19.9876 42.531 20.0617 42.7896 20.0617H55.6173C55.8759 20.0617 56.1239 19.9876 56.3068 19.8558C56.4896 19.7239 56.5923 19.5451 56.5923 19.3586V12.25C56.5923 12.0635 56.6951 11.8847 56.8779 11.7528C57.0608 11.621 57.3088 11.5469 57.5674 11.5469H58.8674C59.1259 11.5469 59.3739 11.621 59.5568 11.7528C59.7396 11.8847 59.8423 12.0635 59.8423 12.25V19.3586C59.8423 19.5451 59.9451 19.7239 60.1279 19.8558C60.3108 19.9876 60.5588 20.0617 60.8174 20.0617H75.1173C75.3759 20.0617 75.6239 20.1358 75.8068 20.2677C75.9896 20.3995 76.0923 20.5784 76.0923 20.7648V21.7023C76.0923 21.7947 76.0671 21.8861 76.0181 21.9714C75.9691 22.0567 75.8973 22.1342 75.8068 22.1995C75.7162 22.2648 75.6088 22.3166 75.4905 22.3519C75.3722 22.3873 75.2454 22.4055 75.1173 22.4055H60.8174C60.5588 22.4055 60.3108 22.4795 60.1279 22.6114C59.9451 22.7433 59.8423 22.9221 59.8423 23.1086V30.2523C59.8423 30.4388 59.9451 30.6177 60.1279 30.7495C60.3108 30.8814 60.5588 30.9555 60.8174 30.9555H75.1173C75.3759 30.9555 75.6239 31.0295 75.8068 31.1614C75.9896 31.2933 76.0923 31.4721 76.0923 31.6586V32.5961C76.0923 32.7826 75.9896 32.9614 75.8068 33.0933C75.6239 33.2251 75.3759 33.2992 75.1173 33.2992H60.8174C60.5588 33.2992 60.3108 33.3733 60.1279 33.5052C59.9451 33.637 59.8423 33.8159 59.8423 34.0023V43.3352C59.8423 43.5216 59.7396 43.7005 59.5568 43.8323C59.3739 43.9642 59.1259 44.0383 58.8674 44.0383H57.5674C57.3088 44.0383 57.0608 43.9642 56.8779 43.8323C56.6951 43.7005 56.5923 43.5216 56.5923 43.3352V34.0023C56.5923 33.8159 56.4896 33.637 56.3068 33.5052C56.1239 33.3733 55.8759 33.2992 55.6173 33.2992H42.7896C42.531 33.2992 42.283 33.3733 42.1002 33.5052C41.9173 33.637 41.8146 33.8159 41.8146 34.0023V41.3852C41.8146 41.5716 41.7119 41.7505 41.529 41.8823C41.3462 42.0142 41.0982 42.0883 40.8396 42.0883H39.5396C39.281 42.0883 39.033 42.0142 38.8502 41.8823C38.6673 41.7505 38.5646 41.5716 38.5646 41.3852V34.0023C38.5646 33.8159 38.4619 33.637 38.279 33.5052C38.0962 33.3733 37.8482 33.2992 37.5896 33.2992H24.7651C24.5065 33.2992 24.2585 33.3733 24.0757 33.5052C23.8928 33.637 23.7901 33.8159 23.7901 34.0023V41.3852C23.7901 41.5716 23.6874 41.7505 23.5045 41.8823C23.3217 42.0142 23.0737 42.0883 22.8151 42.0883H21.5151C21.2565 42.0883 21.0085 42.0142 20.8257 41.8823C20.6428 41.7505 20.5401 41.5716 20.5401 41.3852V34.0023C20.5401 33.91 20.5149 33.8186 20.4659 33.7333C20.4169 33.648 20.3451 33.5704 20.2545 33.5052C20.164 33.4399 20.0565 33.3881 19.9382 33.3527C19.8199 33.3174 19.6931 33.2992 19.5651 33.2992H5.1351C4.87651 33.2992 4.62851 33.2251 4.44567 33.0933C4.26282 32.9614 4.1601 32.7826 4.1601 32.5961V31.6586C4.1601 31.4721 4.26282 31.2933 4.44567 31.1614C4.62851 31.0295 4.87651 30.9555 5.1351 30.9555H19.5651ZM23.7901 30.2523C23.7901 30.4388 23.8928 30.6177 24.0757 30.7495C24.2585 30.8814 24.5065 30.9555 24.7651 30.9555H37.5896C37.8482 30.9555 38.0962 30.8814 38.279 30.7495C38.4619 30.6177 38.5646 30.4388 38.5646 30.2523V23.1086C38.5646 22.9221 38.4619 22.7433 38.279 22.6114C38.0962 22.4795 37.8482 22.4055 37.5896 22.4055H24.7651C24.5065 22.4055 24.2585 22.4795 24.0757 22.6114C23.8928 22.7433 23.7901 22.9221 23.7901 23.1086V30.2523ZM41.8146 30.2523C41.8146 30.4388 41.9173 30.6177 42.1002 30.7495C42.283 30.8814 42.531 30.9555 42.7896 30.9555H55.6173C55.8759 30.9555 56.1239 30.8814 56.3068 30.7495C56.4896 30.6177 56.5923 30.4388 56.5923 30.2523V23.1086C56.5923 22.9221 56.4896 22.7433 56.3068 22.6114C56.1239 22.4795 55.8759 22.4055 55.6173 22.4055H42.7896C42.531 22.4055 42.283 22.4795 42.1002 22.6114C41.9173 22.7433 41.8146 22.9221 41.8146 23.1086V30.2523Z" fill="#A09DA3"/>
<path fill-rule="evenodd" clip-rule="evenodd" d="M19.5651 30.9555C19.8237 30.9555 20.0717 30.8814 20.2545 30.7495C20.4374 30.6177 20.5401 30.4388 20.5401 30.2523V23.1086C20.5401 22.9221 20.4374 22.7433 20.2545 22.6114C20.0717 22.4795 19.8237 22.4055 19.5651 22.4055H5.1351C4.87651 22.4055 4.62851 22.3314 4.44567 22.1995C4.26282 22.0677 4.1601 21.8888 4.1601 21.7023V20.7648C4.1601 20.6725 4.18531 20.5811 4.23431 20.4958C4.28331 20.4105 4.35513 20.333 4.44567 20.2677C4.5362 20.2024 4.64369 20.1506 4.76198 20.1152C4.88027 20.0799 5.00706 20.0617 5.1351 20.0617H19.5651C19.8237 20.0617 20.0717 19.9876 20.2545 19.8558C20.4374 19.7239 20.5401 19.5451 20.5401 19.3586V12.25C20.5401 12.0635 20.6428 11.8847 20.8257 11.7528C21.0085 11.621 21.2565 11.5469 21.5151 11.5469H22.8151C23.0737 11.5469 23.3217 11.621 23.5045 11.7528C23.6874 11.8847 23.7901 12.0635 23.7901 12.25V19.3586C23.7901 19.5451 23.8928 19.7239 24.0757 19.8558C24.2585 19.9876 24.5065 20.0617 24.7651 20.0617H37.5896C37.8482 20.0617 38.0962 19.9876 38.279 19.8558C38.4619 19.7239 38.5646 19.5451 38.5646 19.3586V12.25C38.5646 12.0635 38.6673 11.8847 38.8502 11.7528C39.033 11.621 39.281 11.5469 39.5396 11.5469H40.8396C41.0982 11.5469 41.3462 11.621 41.529 11.7528C41.7119 11.8847 41.8146 12.0635 41.8146 12.25V19.3586C41.8146 19.5451 41.9173 19.7239 42.1002 19.8558C42.283 19.9876 42.531 20.0617 42.7896 20.0617H55.6173C55.8759 20.0617 56.1239 19.9876 56.3068 19.8558C56.4896 19.7239 56.5923 19.5451 56.5923 19.3586V12.25C56.5923 12.0635 56.6951 11.8847 56.8779 11.7528C57.0608 11.621 57.3088 11.5469 57.5674 11.5469H58.8674C59.1259 11.5469 59.3739 11.621 59.5568 11.7528C59.7396 11.8847 59.8423 12.0635 59.8423 12.25V19.3586C59.8423 19.5451 59.9451 19.7239 60.1279 19.8558C60.3108 19.9876 60.5588 20.0617 60.8174 20.0617H75.1173C75.3759 20.0617 75.6239 20.1358 75.8068 20.2677C75.9896 20.3995 76.0923 20.5784 76.0923 20.7648V21.7023C76.0923 21.7947 76.0671 21.8861 76.0181 21.9714C75.9691 22.0567 75.8973 22.1342 75.8068 22.1995C75.7162 22.2648 75.6088 22.3166 75.4905 22.3519C75.3722 22.3873 75.2454 22.4055 75.1173 22.4055H60.8174C60.5588 22.4055 60.3108 22.4795 60.1279 22.6114C59.9451 22.7433 59.8423 22.9221 59.8423 23.1086V30.2523C59.8423 30.4388 59.9451 30.6177 60.1279 30.7495C60.3108 30.8814 60.5588 30.9555 60.8174 30.9555H75.1173C75.3759 30.9555 75.6239 31.0295 75.8068 31.1614C75.9896 31.2933 76.0923 31.4721 76.0923 31.6586V32.5961C76.0923 32.7826 75.9896 32.9614 75.8068 33.0933C75.6239 33.2251 75.3759 33.2992 75.1173 33.2992H60.8174C60.5588 33.2992 60.3108 33.3733 60.1279 33.5052C59.9451 33.637 59.8423 33.8159 59.8423 34.0023V43.3352C59.8423 43.5216 59.7396 43.7005 59.5568 43.8323C59.3739 43.9642 59.1259 44.0383 58.8674 44.0383H57.5674C57.3088 44.0383 57.0608 43.9642 56.8779 43.8323C56.6951 43.7005 56.5923 43.5216 56.5923 43.3352V34.0023C56.5923 33.8159 56.4896 33.637 56.3068 33.5052C56.1239 33.3733 55.8759 33.2992 55.6173 33.2992H42.7896C42.531 33.2992 42.283 33.3733 42.1002 33.5052C41.9173 33.637 41.8146 33.8159 41.8146 34.0023V41.3852C41.8146 41.5716 41.7119 41.7505 41.529 41.8823C41.3462 42.0142 41.0982 42.0883 40.8396 42.0883H39.5396C39.281 42.0883 39.033 42.0142 38.8502 41.8823C38.6673 41.7505 38.5646 41.5716 38.5646 41.3852V34.0023C38.5646 33.8159 38.4619 33.637 38.279 33.5052C38.0962 33.3733 37.8482 33.2992 37.5896 33.2992H24.7651C24.5065 33.2992 24.2585 33.3733 24.0757 33.5052C23.8928 33.637 23.7901 33.8159 23.7901 34.0023V41.3852C23.7901 41.5716 23.6874 41.7505 23.5045 41.8823C23.3217 42.0142 23.0737 42.0883 22.8151 42.0883H21.5151C21.2565 42.0883 21.0085 42.0142 20.8257 41.8823C20.6428 41.7505 20.5401 41.5716 20.5401 41.3852V34.0023C20.5401 33.91 20.5149 33.8186 20.4659 33.7333C20.4169 33.648 20.3451 33.5704 20.2545 33.5052C20.164 33.4399 20.0565 33.3881 19.9382 33.3527C19.8199 33.3174 19.6931 33.2992 19.5651 33.2992H5.1351C4.87651 33.2992 4.62851 33.2251 4.44567 33.0933C4.26282 32.9614 4.1601 32.7826 4.1601 32.5961V31.6586C4.1601 31.4721 4.26282 31.2933 4.44567 31.1614C4.62851 31.0295 4.87651 30.9555 5.1351 30.9555H19.5651ZM23.7901 30.2523C23.7901 30.4388 23.8928 30.6177 24.0757 30.7495C24.2585 30.8814 24.5065 30.9555 24.7651 30.9555H37.5896C37.8482 30.9555 38.0962 30.8814 38.279 30.7495C38.4619 30.6177 38.5646 30.4388 38.5646 30.2523V23.1086C38.5646 22.9221 38.4619 22.7433 38.279 22.6114C38.0962 22.4795 37.8482 22.4055 37.5896 22.4055H24.7651C24.5065 22.4055 24.2585 22.4795 24.0757 22.6114C23.8928 22.7433 23.7901 22.9221 23.7901 23.1086V30.2523ZM41.8146 30.2523C41.8146 30.4388 41.9173 30.6177 42.1002 30.7495C42.283 30.8814 42.531 30.9555 42.7896 30.9555H55.6173C55.8759 30.9555 56.1239 30.8814 56.3068 30.7495C56.4896 30.6177 56.5923 30.4388 56.5923 30.2523V23.1086C56.5923 22.9221 56.4896 22.7433 56.3068 22.6114C56.1239 22.4795 55.8759 22.4055 55.6173 22.4055H42.7896C42.531 22.4055 42.283 22.4795 42.1002 22.6114C41.9173 22.7433 41.8146 22.9221 41.8146 23.1086V30.2523Z" fill="url(#paint3_radial_22_849)"/>
<path fill-rule="evenodd" clip-rule="evenodd" d="M19.5651 30.9555C19.8237 30.9555 20.0717 30.8814 20.2545 30.7495C20.4374 30.6177 20.5401 30.4388 20.5401 30.2523V23.1086C20.5401 22.9221 20.4374 22.7433 20.2545 22.6114C20.0717 22.4795 19.8237 22.4055 19.5651 22.4055H5.1351C4.87651 22.4055 4.62851 22.3314 4.44567 22.1995C4.26282 22.0677 4.1601 21.8888 4.1601 21.7023V20.7648C4.1601 20.6725 4.18531 20.5811 4.23431 20.4958C4.28331 20.4105 4.35513 20.333 4.44567 20.2677C4.5362 20.2024 4.64369 20.1506 4.76198 20.1152C4.88027 20.0799 5.00706 20.0617 5.1351 20.0617H19.5651C19.8237 20.0617 20.0717 19.9876 20.2545 19.8558C20.4374 19.7239 20.5401 19.5451 20.5401 19.3586V12.25C20.5401 12.0635 20.6428 11.8847 20.8257 11.7528C21.0085 11.621 21.2565 11.5469 21.5151 11.5469H22.8151C23.0737 11.5469 23.3217 11.621 23.5045 11.7528C23.6874 11.8847 23.7901 12.0635 23.7901 12.25V19.3586C23.7901 19.5451 23.8928 19.7239 24.0757 19.8558C24.2585 19.9876 24.5065 20.0617 24.7651 20.0617H37.5896C37.8482 20.0617 38.0962 19.9876 38.279 19.8558C38.4619 19.7239 38.5646 19.5451 38.5646 19.3586V12.25C38.5646 12.0635 38.6673 11.8847 38.8502 11.7528C39.033 11.621 39.281 11.5469 39.5396 11.5469H40.8396C41.0982 11.5469 41.3462 11.621 41.529 11.7528C41.7119 11.8847 41.8146 12.0635 41.8146 12.25V19.3586C41.8146 19.5451 41.9173 19.7239 42.1002 19.8558C42.283 19.9876 42.531 20.0617 42.7896 20.0617H55.6173C55.8759 20.0617 56.1239 19.9876 56.3068 19.8558C56.4896 19.7239 56.5923 19.5451 56.5923 19.3586V12.25C56.5923 12.0635 56.6951 11.8847 56.8779 11.7528C57.0608 11.621 57.3088 11.5469 57.5674 11.5469H58.8674C59.1259 11.5469 59.3739 11.621 59.5568 11.7528C59.7396 11.8847 59.8423 12.0635 59.8423 12.25V19.3586C59.8423 19.5451 59.9451 19.7239 60.1279 19.8558C60.3108 19.9876 60.5588 20.0617 60.8174 20.0617H75.1173C75.3759 20.0617 75.6239 20.1358 75.8068 20.2677C75.9896 20.3995 76.0923 20.5784 76.0923 20.7648V21.7023C76.0923 21.7947 76.0671 21.8861 76.0181 21.9714C75.9691 22.0567 75.8973 22.1342 75.8068 22.1995C75.7162 22.2648 75.6088 22.3166 75.4905 22.3519C75.3722 22.3873 75.2454 22.4055 75.1173 22.4055H60.8174C60.5588 22.4055 60.3108 22.4795 60.1279 22.6114C59.9451 22.7433 59.8423 22.9221 59.8423 23.1086V30.2523C59.8423 30.4388 59.9451 30.6177 60.1279 30.7495C60.3108 30.8814 60.5588 30.9555 60.8174 30.9555H75.1173C75.3759 30.9555 75.6239 31.0295 75.8068 31.1614C75.9896 31.2933 76.0923 31.4721 76.0923 31.6586V32.5961C76.0923 32.7826 75.9896 32.9614 75.8068 33.0933C75.6239 33.2251 75.3759 33.2992 75.1173 33.2992H60.8174C60.5588 33.2992 60.3108 33.3733 60.1279 33.5052C59.9451 33.637 59.8423 33.8159 59.8423 34.0023V43.3352C59.8423 43.5216 59.7396 43.7005 59.5568 43.8323C59.3739 43.9642 59.1259 44.0383 58.8674 44.0383H57.5674C57.3088 44.0383 57.0608 43.9642 56.8779 43.8323C56.6951 43.7005 56.5923 43.5216 56.5923 43.3352V34.0023C56.5923 33.8159 56.4896 33.637 56.3068 33.5052C56.1239 33.3733 55.8759 33.2992 55.6173 33.2992H42.7896C42.531 33.2992 42.283 33.3733 42.1002 33.5052C41.9173 33.637 41.8146 33.8159 41.8146 34.0023V41.3852C41.8146 41.5716 41.7119 41.7505 41.529 41.8823C41.3462 42.0142 41.0982 42.0883 40.8396 42.0883H39.5396C39.281 42.0883 39.033 42.0142 38.8502 41.8823C38.6673 41.7505 38.5646 41.5716 38.5646 41.3852V34.0023C38.5646 33.8159 38.4619 33.637 38.279 33.5052C38.0962 33.3733 37.8482 33.2992 37.5896 33.2992H24.7651C24.5065 33.2992 24.2585 33.3733 24.0757 33.5052C23.8928 33.637 23.7901 33.8159 23.7901 34.0023V41.3852C23.7901 41.5716 23.6874 41.7505 23.5045 41.8823C23.3217 42.0142 23.0737 42.0883 22.8151 42.0883H21.5151C21.2565 42.0883 21.0085 42.0142 20.8257 41.8823C20.6428 41.7505 20.5401 41.5716 20.5401 41.3852V34.0023C20.5401 33.91 20.5149 33.8186 20.4659 33.7333C20.4169 33.648 20.3451 33.5704 20.2545 33.5052C20.164 33.4399 20.0565 33.3881 19.9382 33.3527C19.8199 33.3174 19.6931 33.2992 19.5651 33.2992H5.1351C4.87651 33.2992 4.62851 33.2251 4.44567 33.0933C4.26282 32.9614 4.1601 32.7826 4.1601 32.5961V31.6586C4.1601 31.4721 4.26282 31.2933 4.44567 31.1614C4.62851 31.0295 4.87651 30.9555 5.1351 30.9555H19.5651ZM23.7901 30.2523C23.7901 30.4388 23.8928 30.6177 24.0757 30.7495C24.2585 30.8814 24.5065 30.9555 24.7651 30.9555H37.5896C37.8482 30.9555 38.0962 30.8814 38.279 30.7495C38.4619 30.6177 38.5646 30.4388 38.5646 30.2523V23.1086C38.5646 22.9221 38.4619 22.7433 38.279 22.6114C38.0962 22.4795 37.8482 22.4055 37.5896 22.4055H24.7651C24.5065 22.4055 24.2585 22.4795 24.0757 22.6114C23.8928 22.7433 23.7901 22.9221 23.7901 23.1086V30.2523ZM41.8146 30.2523C41.8146 30.4388 41.9173 30.6177 42.1002 30.7495C42.283 30.8814 42.531 30.9555 42.7896 30.9555H55.6173C55.8759 30.9555 56.1239 30.8814 56.3068 30.7495C56.4896 30.6177 56.5923 30.4388 56.5923 30.2523V23.1086C56.5923 22.9221 56.4896 22.7433 56.3068 22.6114C56.1239 22.4795 55.8759 22.4055 55.6173 22.4055H42.7896C42.531 22.4055 42.283 22.4795 42.1002 22.6114C41.9173 22.7433 41.8146 22.9221 41.8146 23.1086V30.2523Z" fill="url(#paint4_linear_22_849)"/>
<path fill-rule="evenodd" clip-rule="evenodd" d="M19.5651 30.9555C19.8237 30.9555 20.0717 30.8814 20.2545 30.7495C20.4374 30.6177 20.5401 30.4388 20.5401 30.2523V23.1086C20.5401 22.9221 20.4374 22.7433 20.2545 22.6114C20.0717 22.4795 19.8237 22.4055 19.5651 22.4055H5.1351C4.87651 22.4055 4.62851 22.3314 4.44567 22.1995C4.26282 22.0677 4.1601 21.8888 4.1601 21.7023V20.7648C4.1601 20.6725 4.18531 20.5811 4.23431 20.4958C4.28331 20.4105 4.35513 20.333 4.44567 20.2677C4.5362 20.2024 4.64369 20.1506 4.76198 20.1152C4.88027 20.0799 5.00706 20.0617 5.1351 20.0617H19.5651C19.8237 20.0617 20.0717 19.9876 20.2545 19.8558C20.4374 19.7239 20.5401 19.5451 20.5401 19.3586V12.25C20.5401 12.0635 20.6428 11.8847 20.8257 11.7528C21.0085 11.621 21.2565 11.5469 21.5151 11.5469H22.8151C23.0737 11.5469 23.3217 11.621 23.5045 11.7528C23.6874 11.8847 23.7901 12.0635 23.7901 12.25V19.3586C23.7901 19.5451 23.8928 19.7239 24.0757 19.8558C24.2585 19.9876 24.5065 20.0617 24.7651 20.0617H37.5896C37.8482 20.0617 38.0962 19.9876 38.279 19.8558C38.4619 19.7239 38.5646 19.5451 38.5646 19.3586V12.25C38.5646 12.0635 38.6673 11.8847 38.8502 11.7528C39.033 11.621 39.281 11.5469 39.5396 11.5469H40.8396C41.0982 11.5469 41.3462 11.621 41.529 11.7528C41.7119 11.8847 41.8146 12.0635 41.8146 12.25V19.3586C41.8146 19.5451 41.9173 19.7239 42.1002 19.8558C42.283 19.9876 42.531 20.0617 42.7896 20.0617H55.6173C55.8759 20.0617 56.1239 19.9876 56.3068 19.8558C56.4896 19.7239 56.5923 19.5451 56.5923 19.3586V12.25C56.5923 12.0635 56.6951 11.8847 56.8779 11.7528C57.0608 11.621 57.3088 11.5469 57.5674 11.5469H58.8674C59.1259 11.5469 59.3739 11.621 59.5568 11.7528C59.7396 11.8847 59.8423 12.0635 59.8423 12.25V19.3586C59.8423 19.5451 59.9451 19.7239 60.1279 19.8558C60.3108 19.9876 60.5588 20.0617 60.8174 20.0617H75.1173C75.3759 20.0617 75.6239 20.1358 75.8068 20.2677C75.9896 20.3995 76.0923 20.5784 76.0923 20.7648V21.7023C76.0923 21.7947 76.0671 21.8861 76.0181 21.9714C75.9691 22.0567 75.8973 22.1342 75.8068 22.1995C75.7162 22.2648 75.6088 22.3166 75.4905 22.3519C75.3722 22.3873 75.2454 22.4055 75.1173 22.4055H60.8174C60.5588 22.4055 60.3108 22.4795 60.1279 22.6114C59.9451 22.7433 59.8423 22.9221 59.8423 23.1086V30.2523C59.8423 30.4388 59.9451 30.6177 60.1279 30.7495C60.3108 30.8814 60.5588 30.9555 60.8174 30.9555H75.1173C75.3759 30.9555 75.6239 31.0295 75.8068 31.1614C75.9896 31.2933 76.0923 31.4721 76.0923 31.6586V32.5961C76.0923 32.7826 75.9896 32.9614 75.8068 33.0933C75.6239 33.2251 75.3759 33.2992 75.1173 33.2992H60.8174C60.5588 33.2992 60.3108 33.3733 60.1279 33.5052C59.9451 33.637 59.8423 33.8159 59.8423 34.0023V43.3352C59.8423 43.5216 59.7396 43.7005 59.5568 43.8323C59.3739 43.9642 59.1259 44.0383 58.8674 44.0383H57.5674C57.3088 44.0383 57.0608 43.9642 56.8779 43.8323C56.6951 43.7005 56.5923 43.5216 56.5923 43.3352V34.0023C56.5923 33.8159 56.4896 33.637 56.3068 33.5052C56.1239 33.3733 55.8759 33.2992 55.6173 33.2992H42.7896C42.531 33.2992 42.283 33.3733 42.1002 33.5052C41.9173 33.637 41.8146 33.8159 41.8146 34.0023V41.3852C41.8146 41.5716 41.7119 41.7505 41.529 41.8823C41.3462 42.0142 41.0982 42.0883 40.8396 42.0883H39.5396C39.281 42.0883 39.033 42.0142 38.8502 41.8823C38.6673 41.7505 38.5646 41.5716 38.5646 41.3852V34.0023C38.5646 33.8159 38.4619 33.637 38.279 33.5052C38.0962 33.3733 37.8482 33.2992 37.5896 33.2992H24.7651C24.5065 33.2992 24.2585 33.3733 24.0757 33.5052C23.8928 33.637 23.7901 33.8159 23.7901 34.0023V41.3852C23.7901 41.5716 23.6874 41.7505 23.5045 41.8823C23.3217 42.0142 23.0737 42.0883 22.8151 42.0883H21.5151C21.2565 42.0883 21.0085 42.0142 20.8257 41.8823C20.6428 41.7505 20.5401 41.5716 20.5401 41.3852V34.0023C20.5401 33.91 20.5149 33.8186 20.4659 33.7333C20.4169 33.648 20.3451 33.5704 20.2545 33.5052C20.164 33.4399 20.0565 33.3881 19.9382 33.3527C19.8199 33.3174 19.6931 33.2992 19.5651 33.2992H5.1351C4.87651 33.2992 4.62851 33.2251 4.44567 33.0933C4.26282 32.9614 4.1601 32.7826 4.1601 32.5961V31.6586C4.1601 31.4721 4.26282 31.2933 4.44567 31.1614C4.62851 31.0295 4.87651 30.9555 5.1351 30.9555H19.5651ZM23.7901 30.2523C23.7901 30.4388 23.8928 30.6177 24.0757 30.7495C24.2585 30.8814 24.5065 30.9555 24.7651 30.9555H37.5896C37.8482 30.9555 38.0962 30.8814 38.279 30.7495C38.4619 30.6177 38.5646 30.4388 38.5646 30.2523V23.1086C38.5646 22.9221 38.4619 22.7433 38.279 22.6114C38.0962 22.4795 37.8482 22.4055 37.5896 22.4055H24.7651C24.5065 22.4055 24.2585 22.4795 24.0757 22.6114C23.8928 22.7433 23.7901 22.9221 23.7901 23.1086V30.2523ZM41.8146 30.2523C41.8146 30.4388 41.9173 30.6177 42.1002 30.7495C42.283 30.8814 42.531 30.9555 42.7896 30.9555H55.6173C55.8759 30.9555 56.1239 30.8814 56.3068 30.7495C56.4896 30.6177 56.5923 30.4388 56.5923 30.2523V23.1086C56.5923 22.9221 56.4896 22.7433 56.3068 22.6114C56.1239 22.4795 55.8759 22.4055 55.6173 22.4055H42.7896C42.531 22.4055 42.283 22.4795 42.1002 22.6114C41.9173 22.7433 41.8146 22.9221 41.8146 23.1086V30.2523Z" fill="url(#paint5_linear_22_849)"/>
</g>
<g filter="url(#filter3_f_22_849)">
<path d="M22.165 11.5469V42.0883M40.1895 11.5469V42.0883M58.2205 11.5469V42.0883M4.16327 21.2336H76.0923M4.16327 32.1273H76.0923" stroke="url(#paint6_radial_22_849)" stroke-width="0.501563"/>
</g>
<path d="M70.4304 63.8243C73.0672 63.8243 75.2047 62.2828 75.2047 60.3813C75.2047 58.4798 73.0672 56.9383 70.4304 56.9383C67.7937 56.9383 65.6562 58.4798 65.6562 60.3813C65.6562 62.2828 67.7937 63.8243 70.4304 63.8243Z" fill="#4381C4"/>
<path d="M70.4304 63.8243C73.0672 63.8243 75.2047 62.2828 75.2047 60.3813C75.2047 58.4798 73.0672 56.9383 70.4304 56.9383C67.7937 56.9383 65.6562 58.4798 65.6562 60.3813C65.6562 62.2828 67.7937 63.8243 70.4304 63.8243Z" fill="url(#paint7_radial_22_849)"/>
<path d="M70.4304 63.8243C73.0672 63.8243 75.2047 62.2828 75.2047 60.3813C75.2047 58.4798 73.0672 56.9383 70.4304 56.9383C67.7937 56.9383 65.6562 58.4798 65.6562 60.3813C65.6562 62.2828 67.7937 63.8243 70.4304 63.8243Z" fill="url(#paint8_radial_22_849)"/>
<path d="M70.4304 63.8243C73.0672 63.8243 75.2047 62.2828 75.2047 60.3813C75.2047 58.4798 73.0672 56.9383 70.4304 56.9383C67.7937 56.9383 65.6562 58.4798 65.6562 60.3813C65.6562 62.2828 67.7937 63.8243 70.4304 63.8243Z" fill="url(#paint9_radial_22_849)"/>
<g filter="url(#filter4_f_22_849)">
<path d="M70.4305 62.8165C72.2954 62.8165 73.8072 61.7262 73.8072 60.3813C73.8072 59.0364 72.2954 57.9462 70.4305 57.9462C68.5655 57.9462 67.0537 59.0364 67.0537 60.3813C67.0537 61.7262 68.5655 62.8165 70.4305 62.8165Z" fill="#4880CB"/>
</g>
<g filter="url(#filter5_iii_22_849)">
<path fill-rule="evenodd" clip-rule="evenodd" d="M71.0643 7.98667C56.3906 7.98198 31.4273 7.97495 11.5438 7.98198C10.0994 7.98286 8.67054 8.19758 7.34582 8.61286C6.0211 9.02813 4.8287 9.63511 3.84248 10.3962C2.85625 11.1573 2.09719 12.0563 1.61231 13.0376C1.12743 14.0188 0.927058 15.0614 1.02359 16.1007L2.74609 34.8343C2.97806 37.3592 4.46108 39.7398 6.92456 41.5418C9.38805 43.3437 12.6678 44.4469 16.1653 44.65L68.0678 47.6546L82.0363 7.99135L71.0643 7.98667ZM65.1006 12.5218H63.2968C51.5741 12.5171 30.0396 12.5101 11.7193 12.5218C11.1433 12.522 10.5735 12.6072 10.0448 12.772C9.51606 12.9369 9.03969 13.1779 8.6449 13.4804C8.25012 13.7829 7.94527 14.1404 7.74909 14.531C7.55291 14.9215 7.46953 15.3369 7.50409 15.7515L9.09009 34.6374C9.33709 37.5624 12.7431 39.946 17.4426 40.1664L57.2746 42.3156C58.1925 42.3651 59.1052 42.1788 59.851 41.7898C60.5969 41.4008 61.1279 40.834 61.3501 40.1898L69.5076 16.5999C69.6761 16.1165 69.6895 15.6117 69.5468 15.124C69.4042 14.6363 69.1092 14.1784 68.6843 13.7852C68.2594 13.392 67.7158 13.0739 67.0948 12.855C66.4738 12.636 65.7918 12.5221 65.1006 12.5218Z" fill="#C0BFC1"/>
<path fill-rule="evenodd" clip-rule="evenodd" d="M71.0643 7.98667C56.3906 7.98198 31.4273 7.97495 11.5438 7.98198C10.0994 7.98286 8.67054 8.19758 7.34582 8.61286C6.0211 9.02813 4.8287 9.63511 3.84248 10.3962C2.85625 11.1573 2.09719 12.0563 1.61231 13.0376C1.12743 14.0188 0.927058 15.0614 1.02359 16.1007L2.74609 34.8343C2.97806 37.3592 4.46108 39.7398 6.92456 41.5418C9.38805 43.3437 12.6678 44.4469 16.1653 44.65L68.0678 47.6546L82.0363 7.99135L71.0643 7.98667ZM65.1006 12.5218H63.2968C51.5741 12.5171 30.0396 12.5101 11.7193 12.5218C11.1433 12.522 10.5735 12.6072 10.0448 12.772C9.51606 12.9369 9.03969 13.1779 8.6449 13.4804C8.25012 13.7829 7.94527 14.1404 7.74909 14.531C7.55291 14.9215 7.46953 15.3369 7.50409 15.7515L9.09009 34.6374C9.33709 37.5624 12.7431 39.946 17.4426 40.1664L57.2746 42.3156C58.1925 42.3651 59.1052 42.1788 59.851 41.7898C60.5969 41.4008 61.1279 40.834 61.3501 40.1898L69.5076 16.5999C69.6761 16.1165 69.6895 15.6117 69.5468 15.124C69.4042 14.6363 69.1092 14.1784 68.6843 13.7852C68.2594 13.392 67.7158 13.0739 67.0948 12.855C66.4738 12.636 65.7918 12.5221 65.1006 12.5218Z" fill="url(#paint10_linear_22_849)"/>
<path fill-rule="evenodd" clip-rule="evenodd" d="M71.0643 7.98667C56.3906 7.98198 31.4273 7.97495 11.5438 7.98198C10.0994 7.98286 8.67054 8.19758 7.34582 8.61286C6.0211 9.02813 4.8287 9.63511 3.84248 10.3962C2.85625 11.1573 2.09719 12.0563 1.61231 13.0376C1.12743 14.0188 0.927058 15.0614 1.02359 16.1007L2.74609 34.8343C2.97806 37.3592 4.46108 39.7398 6.92456 41.5418C9.38805 43.3437 12.6678 44.4469 16.1653 44.65L68.0678 47.6546L82.0363 7.99135L71.0643 7.98667ZM65.1006 12.5218H63.2968C51.5741 12.5171 30.0396 12.5101 11.7193 12.5218C11.1433 12.522 10.5735 12.6072 10.0448 12.772C9.51606 12.9369 9.03969 13.1779 8.6449 13.4804C8.25012 13.7829 7.94527 14.1404 7.74909 14.531C7.55291 14.9215 7.46953 15.3369 7.50409 15.7515L9.09009 34.6374C9.33709 37.5624 12.7431 39.946 17.4426 40.1664L57.2746 42.3156C58.1925 42.3651 59.1052 42.1788 59.851 41.7898C60.5969 41.4008 61.1279 40.834 61.3501 40.1898L69.5076 16.5999C69.6761 16.1165 69.6895 15.6117 69.5468 15.124C69.4042 14.6363 69.1092 14.1784 68.6843 13.7852C68.2594 13.392 67.7158 13.0739 67.0948 12.855C66.4738 12.636 65.7918 12.5221 65.1006 12.5218Z" fill="url(#paint11_radial_22_849)"/>
</g>
<g filter="url(#filter6_i_22_849)">
<path fill-rule="evenodd" clip-rule="evenodd" d="M84.2851 2.1297C85.1221 2.27827 85.8429 2.66052 86.2891 3.19236C86.7352 3.72419 86.8701 4.36206 86.6641 4.96563L71.9871 47.8867C71.8849 48.1856 71.7021 48.467 71.449 48.7149C71.196 48.9628 70.8778 49.1723 70.5124 49.3315C70.1471 49.4907 69.7419 49.5965 69.3199 49.6428C68.8979 49.689 68.4674 49.6749 68.053 49.6012C67.6386 49.5275 67.2484 49.3956 66.9046 49.2131C66.5608 49.0307 66.2703 48.8012 66.0495 48.5377C65.8288 48.2743 65.6821 47.982 65.618 47.6777C65.5538 47.3734 65.5734 47.0629 65.6756 46.7641L80.3526 3.84766C80.5587 3.2441 81.0887 2.72427 81.8262 2.40253C82.5637 2.08079 83.4482 1.98349 84.2851 2.13204V2.1297Z" fill="#C1BFC4"/>
</g>
<path fill-rule="evenodd" clip-rule="evenodd" d="M84.2851 2.1297C85.1221 2.27827 85.8429 2.66052 86.2891 3.19236C86.7352 3.72419 86.8701 4.36206 86.6641 4.96563L71.9871 47.8867C71.8849 48.1856 71.7021 48.467 71.449 48.7149C71.196 48.9628 70.8778 49.1723 70.5124 49.3315C70.1471 49.4907 69.7419 49.5965 69.3199 49.6428C68.8979 49.689 68.4674 49.6749 68.053 49.6012C67.6386 49.5275 67.2484 49.3956 66.9046 49.2131C66.5608 49.0307 66.2703 48.8012 66.0495 48.5377C65.8288 48.2743 65.6821 47.982 65.618 47.6777C65.5538 47.3734 65.5734 47.0629 65.6756 46.7641L80.3526 3.84766C80.5587 3.2441 81.0887 2.72427 81.8262 2.40253C82.5637 2.08079 83.4482 1.98349 84.2851 2.13204V2.1297Z" fill="url(#paint12_radial_22_849)"/>
<path fill-rule="evenodd" clip-rule="evenodd" d="M84.2851 2.1297C85.1221 2.27827 85.8429 2.66052 86.2891 3.19236C86.7352 3.72419 86.8701 4.36206 86.6641 4.96563L71.9871 47.8867C71.8849 48.1856 71.7021 48.467 71.449 48.7149C71.196 48.9628 70.8778 49.1723 70.5124 49.3315C70.1471 49.4907 69.7419 49.5965 69.3199 49.6428C68.8979 49.689 68.4674 49.6749 68.053 49.6012C67.6386 49.5275 67.2484 49.3956 66.9046 49.2131C66.5608 49.0307 66.2703 48.8012 66.0495 48.5377C65.8288 48.2743 65.6821 47.982 65.618 47.6777C65.5538 47.3734 65.5734 47.0629 65.6756 46.7641L80.3526 3.84766C80.5587 3.2441 81.0887 2.72427 81.8262 2.40253C82.5637 2.08079 83.4482 1.98349 84.2851 2.13204V2.1297Z" fill="url(#paint13_radial_22_849)"/>
<g filter="url(#filter7_i_22_849)">
<path d="M79.1502 3.28984C79.1502 2.02422 80.5737 1 82.3255 1H88.546C89.3701 1.01902 90.1517 1.26848 90.7253 1.69562C91.2989 2.12275 91.6197 2.69405 91.6197 3.28867C91.6197 3.88329 91.2989 4.45459 90.7253 4.88173C90.1517 5.30886 89.3701 5.55832 88.546 5.57734H82.3255C81.4845 5.57672 80.6782 5.33552 80.0835 4.90667C79.4888 4.47781 79.1544 3.89634 79.1535 3.28984H79.1502Z" fill="#347CC3"/>
<path d="M79.1502 3.28984C79.1502 2.02422 80.5737 1 82.3255 1H88.546C89.3701 1.01902 90.1517 1.26848 90.7253 1.69562C91.2989 2.12275 91.6197 2.69405 91.6197 3.28867C91.6197 3.88329 91.2989 4.45459 90.7253 4.88173C90.1517 5.30886 89.3701 5.55832 88.546 5.57734H82.3255C81.4845 5.57672 80.6782 5.33552 80.0835 4.90667C79.4888 4.47781 79.1544 3.89634 79.1535 3.28984H79.1502Z" fill="url(#paint14_linear_22_849)"/>
</g>
<g filter="url(#filter8_f_22_849)">
<path d="M6.10044 14.0008C5.74619 12.3531 8.12844 10.082 11.0534 10.082H76.9667" stroke="url(#paint15_linear_22_849)" stroke-width="1.3375"/>
</g>
<g filter="url(#filter9_f_22_849)">
<path d="M5.20322 18.5055L7.02972 35.718C7.26697 37.5719 9.53222 41.4742 16.6822 42.2336C23.8322 42.9977 50.1605 43.968 62.1822 44.6523" stroke="url(#paint16_linear_22_849)" stroke-width="1.3375"/>
</g>
<g filter="url(#filter10_f_22_849)">
<path d="M83.3042 6.78671L68.884 47.3617" stroke="#C8C5CD" stroke-width="1.67188" stroke-linecap="round"/>
</g>
<g filter="url(#filter11_f_22_849)">
<path d="M89.5763 2.51883H82.6473C82.3099 2.51883 82.0363 2.71558 82.0363 2.95828C82.0363 3.20099 82.3099 3.39774 82.6473 3.39774H89.5763C89.9138 3.39774 90.1873 3.20099 90.1873 2.95828C90.1873 2.71558 89.9138 2.51883 89.5763 2.51883Z" fill="#6B9ADA"/>
</g>
<defs>
<filter id="filter0_ii_22_849" x="0.946472" y="31.7266" width="87.8335" height="27.6406" filterUnits="userSpaceOnUse" color-interpolation-filters="sRGB">
<feFlood flood-opacity="0" result="BackgroundImageFix"/>
<feBlend mode="normal" in="SourceGraphic" in2="BackgroundImageFix" result="shape"/>
<feColorMatrix in="SourceAlpha" type="matrix" values="0 0 0 0 0 0 0 0 0 0 0 0 0 0 0 0 0 0 127 0" result="hardAlpha"/>
<feOffset dy="-1.67188"/>
<feGaussianBlur stdDeviation="1.67188"/>
<feComposite in2="hardAlpha" operator="arithmetic" k2="-1" k3="1"/>
<feColorMatrix type="matrix" values="0 0 0 0 0.596078 0 0 0 0 0.505882 0 0 0 0 0.682353 0 0 0 1 0"/>
<feBlend mode="normal" in2="shape" result="effect1_innerShadow_22_849"/>
<feColorMatrix in="SourceAlpha" type="matrix" values="0 0 0 0 0 0 0 0 0 0 0 0 0 0 0 0 0 0 127 0" result="hardAlpha"/>
<feOffset dy="1.3375"/>
<feGaussianBlur stdDeviation="1.67188"/>
<feComposite in2="hardAlpha" operator="arithmetic" k2="-1" k3="1"/>
<feColorMatrix type="matrix" values="0 0 0 0 0.654902 0 0 0 0 0.647059 0 0 0 0 0.666667 0 0 0 1 0"/>
<feBlend mode="normal" in2="effect1_innerShadow_22_849" result="effect2_innerShadow_22_849"/>
</filter>
<filter id="filter1_f_22_849" x="8.07538" y="57.1102" width="8.42538" height="6.54219" filterUnits="userSpaceOnUse" color-interpolation-filters="sRGB">
<feFlood flood-opacity="0" result="BackgroundImageFix"/>
<feBlend mode="normal" in="SourceGraphic" in2="BackgroundImageFix" result="shape"/>
<feGaussianBlur stdDeviation="0.417969" result="effect1_foregroundBlur_22_849"/>
</filter>
<filter id="filter2_i_22_849" x="4.1601" y="11.0453" width="71.9323" height="32.993" filterUnits="userSpaceOnUse" color-interpolation-filters="sRGB">
<feFlood flood-opacity="0" result="BackgroundImageFix"/>
<feBlend mode="normal" in="SourceGraphic" in2="BackgroundImageFix" result="shape"/>
<feColorMatrix in="SourceAlpha" type="matrix" values="0 0 0 0 0 0 0 0 0 0 0 0 0 0 0 0 0 0 127 0" result="hardAlpha"/>
<feOffset dy="-0.501563"/>
<feGaussianBlur stdDeviation="0.250781"/>
<feComposite in2="hardAlpha" operator="arithmetic" k2="-1" k3="1"/>
<feColorMatrix type="matrix" values="0 0 0 0 0.619608 0 0 0 0 0.564706 0 0 0 0 0.67451 0 0 0 1 0"/>
<feBlend mode="normal" in2="shape" result="effect1_innerShadow_22_849"/>
</filter>
<filter id="filter3_f_22_849" x="3.32733" y="10.7109" width="73.6009" height="32.2133" filterUnits="userSpaceOnUse" color-interpolation-filters="sRGB">
<feFlood flood-opacity="0" result="BackgroundImageFix"/>
<feBlend mode="normal" in="SourceGraphic" in2="BackgroundImageFix" result="shape"/>
<feGaussianBlur stdDeviation="0.417969" result="effect1_foregroundBlur_22_849"/>
</filter>
<filter id="filter4_f_22_849" x="66.2178" y="57.1102" width="8.42538" height="6.54219" filterUnits="userSpaceOnUse" color-interpolation-filters="sRGB">
<feFlood flood-opacity="0" result="BackgroundImageFix"/>
<feBlend mode="normal" in="SourceGraphic" in2="BackgroundImageFix" result="shape"/>
<feGaussianBlur stdDeviation="0.417969" result="effect1_foregroundBlur_22_849"/>
</filter>
<filter id="filter5_iii_22_849" x="1" y="6.30713" width="81.8723" height="42.1834" filterUnits="userSpaceOnUse" color-interpolation-filters="sRGB">
<feFlood flood-opacity="0" result="BackgroundImageFix"/>
<feBlend mode="normal" in="SourceGraphic" in2="BackgroundImageFix" result="shape"/>
<feColorMatrix in="SourceAlpha" type="matrix" values="0 0 0 0 0 0 0 0 0 0 0 0 0 0 0 0 0 0 127 0" result="hardAlpha"/>
<feOffset dy="-1.67188"/>
<feGaussianBlur stdDeviation="1.67188"/>
<feComposite in2="hardAlpha" operator="arithmetic" k2="-1" k3="1"/>
<feColorMatrix type="matrix" values="0 0 0 0 0.603922 0 0 0 0 0.568627 0 0 0 0 0.643137 0 0 0 1 0"/>
<feBlend mode="normal" in2="shape" result="effect1_innerShadow_22_849"/>
<feColorMatrix in="SourceAlpha" type="matrix" values="0 0 0 0 0 0 0 0 0 0 0 0 0 0 0 0 0 0 127 0" result="hardAlpha"/>
<feOffset dy="0.835938"/>
<feGaussianBlur stdDeviation="0.835938"/>
<feComposite in2="hardAlpha" operator="arithmetic" k2="-1" k3="1"/>
<feColorMatrix type="matrix" values="0 0 0 0 0.654902 0 0 0 0 0.654902 0 0 0 0 0.662745 0 0 0 1 0"/>
<feBlend mode="normal" in2="effect1_innerShadow_22_849" result="effect2_innerShadow_22_849"/>
<feColorMatrix in="SourceAlpha" type="matrix" values="0 0 0 0 0 0 0 0 0 0 0 0 0 0 0 0 0 0 127 0" result="hardAlpha"/>
<feOffset dx="0.835938"/>
<feGaussianBlur stdDeviation="0.835938"/>
<feComposite in2="hardAlpha" operator="arithmetic" k2="-1" k3="1"/>
<feColorMatrix type="matrix" values="0 0 0 0 0.654902 0 0 0 0 0.654902 0 0 0 0 0.662745 0 0 0 1 0"/>
<feBlend mode="normal" in2="effect2_innerShadow_22_849" result="effect3_innerShadow_22_849"/>
</filter>
<filter id="filter6_i_22_849" x="65.5811" y="2.06412" width="23.6851" height="47.6053" filterUnits="userSpaceOnUse" color-interpolation-filters="sRGB">
<feFlood flood-opacity="0" result="BackgroundImageFix"/>
<feBlend mode="normal" in="SourceGraphic" in2="BackgroundImageFix" result="shape"/>
<feColorMatrix in="SourceAlpha" type="matrix" values="0 0 0 0 0 0 0 0 0 0 0 0 0 0 0 0 0 0 127 0" result="hardAlpha"/>
<feOffset dx="2.50781"/>
<feGaussianBlur stdDeviation="1.67188"/>
<feComposite in2="hardAlpha" operator="arithmetic" k2="-1" k3="1"/>
<feColorMatrix type="matrix" values="0 0 0 0 0.654902 0 0 0 0 0.639216 0 0 0 0 0.670588 0 0 0 1 0"/>
<feBlend mode="normal" in2="shape" result="effect1_innerShadow_22_849"/>
</filter>
<filter id="filter7_i_22_849" x="79.1502" y="-0.3375" width="12.4694" height="5.91483" filterUnits="userSpaceOnUse" color-interpolation-filters="sRGB">
<feFlood flood-opacity="0" result="BackgroundImageFix"/>
<feBlend mode="normal" in="SourceGraphic" in2="BackgroundImageFix" result="shape"/>
<feColorMatrix in="SourceAlpha" type="matrix" values="0 0 0 0 0 0 0 0 0 0 0 0 0 0 0 0 0 0 127 0" result="hardAlpha"/>
<feOffset dy="-1.3375"/>
<feGaussianBlur stdDeviation="1.25391"/>
<feComposite in2="hardAlpha" operator="arithmetic" k2="-1" k3="1"/>
<feColorMatrix type="matrix" values="0 0 0 0 0.27451 0 0 0 0 0.356863 0 0 0 0 0.584314 0 0 0 1 0"/>
<feBlend mode="normal" in2="shape" result="effect1_innerShadow_22_849"/>
</filter>
<filter id="filter8_f_22_849" x="4.05828" y="8.07577" width="74.2459" height="7.40309" filterUnits="userSpaceOnUse" color-interpolation-filters="sRGB">
<feFlood flood-opacity="0" result="BackgroundImageFix"/>
<feBlend mode="normal" in="SourceGraphic" in2="BackgroundImageFix" result="shape"/>
<feGaussianBlur stdDeviation="0.66875" result="effect1_foregroundBlur_22_849"/>
</filter>
<filter id="filter9_f_22_849" x="3.20071" y="17.0974" width="60.357" height="29.5601" filterUnits="userSpaceOnUse" color-interpolation-filters="sRGB">
<feFlood flood-opacity="0" result="BackgroundImageFix"/>
<feBlend mode="normal" in="SourceGraphic" in2="BackgroundImageFix" result="shape"/>
<feGaussianBlur stdDeviation="0.66875" result="effect1_foregroundBlur_22_849"/>
</filter>
<filter id="filter10_f_22_849" x="66.3759" y="4.27869" width="19.4363" height="45.5911" filterUnits="userSpaceOnUse" color-interpolation-filters="sRGB">
<feFlood flood-opacity="0" result="BackgroundImageFix"/>
<feBlend mode="normal" in="SourceGraphic" in2="BackgroundImageFix" result="shape"/>
<feGaussianBlur stdDeviation="0.835938" result="effect1_foregroundBlur_22_849"/>
</filter>
<filter id="filter11_f_22_849" x="80.3644" y="0.846954" width="11.4948" height="4.22266" filterUnits="userSpaceOnUse" color-interpolation-filters="sRGB">
<feFlood flood-opacity="0" result="BackgroundImageFix"/>
<feBlend mode="normal" in="SourceGraphic" in2="BackgroundImageFix" result="shape"/>
<feGaussianBlur stdDeviation="0.835938" result="effect1_foregroundBlur_22_849"/>
</filter>
<radialGradient id="paint0_radial_22_849" cx="0" cy="0" r="1" gradientUnits="userSpaceOnUse" gradientTransform="translate(15.0534 58.8599) rotate(125.101) scale(6.53514 7.62403)">
<stop offset="0.486" stop-color="#2C55AC" stop-opacity="0"/>
<stop offset="1" stop-color="#2C55AC"/>
</radialGradient>
<radialGradient id="paint1_radial_22_849" cx="0" cy="0" r="1" gradientUnits="userSpaceOnUse" gradientTransform="translate(14.6215 59.793) rotate(153.568) scale(2.92057 3.52566)">
<stop offset="0.614" stop-color="#6A99DB"/>
<stop offset="1" stop-color="#6A99DB" stop-opacity="0"/>
</radialGradient>
<radialGradient id="paint2_radial_22_849" cx="0" cy="0" r="1" gradientUnits="userSpaceOnUse" gradientTransform="translate(13.4288 62.0102) rotate(-124.198) scale(6.68577 9.47568)">
<stop offset="0.657" stop-color="#2F5086" stop-opacity="0"/>
<stop offset="0.891" stop-color="#2F5086"/>
</radialGradient>
<radialGradient id="paint3_radial_22_849" cx="0" cy="0" r="1" gradientUnits="userSpaceOnUse" gradientTransform="translate(40.1278 25.0961) rotate(90) scale(10.9863 31.9538)">
<stop offset="0.339" stop-color="#B9B6BC"/>
<stop offset="1" stop-color="#B9B6BC" stop-opacity="0"/>
</radialGradient>
<linearGradient id="paint4_linear_22_849" x1="71.2174" y1="30.5898" x2="57.234" y2="24.8252" gradientUnits="userSpaceOnUse">
<stop offset="0.239" stop-color="#807F82"/>
<stop offset="1" stop-color="#807F82" stop-opacity="0"/>
</linearGradient>
<linearGradient id="paint5_linear_22_849" x1="56.1861" y1="9.56875" x2="56.1861" y2="27.3672" gradientUnits="userSpaceOnUse">
<stop offset="0.123" stop-color="#807F82"/>
<stop offset="0.407" stop-color="#807F82" stop-opacity="0"/>
</linearGradient>
<radialGradient id="paint6_radial_22_849" cx="0" cy="0" r="1" gradientUnits="userSpaceOnUse" gradientTransform="translate(40.1278 26.8164) rotate(90) scale(22.522 55.6436)">
<stop offset="0.405" stop-color="#C7C4CA"/>
<stop offset="1" stop-color="#C7C4CA" stop-opacity="0"/>
</radialGradient>
<radialGradient id="paint7_radial_22_849" cx="0" cy="0" r="1" gradientUnits="userSpaceOnUse" gradientTransform="translate(73.1969 58.8612) rotate(125.101) scale(6.53514 7.62403)">
<stop offset="0.486" stop-color="#2C55AC" stop-opacity="0"/>
<stop offset="1" stop-color="#2C55AC"/>
</radialGradient>
<radialGradient id="paint8_radial_22_849" cx="0" cy="0" r="1" gradientUnits="userSpaceOnUse" gradientTransform="translate(72.334 59.2629) rotate(140.019) scale(2.84971 4.0164)">
<stop offset="0.421" stop-color="#6A99DB"/>
<stop offset="1" stop-color="#6A99DB" stop-opacity="0"/>
</radialGradient>
<radialGradient id="paint9_radial_22_849" cx="0" cy="0" r="1" gradientUnits="userSpaceOnUse" gradientTransform="translate(71.5744 62.0102) rotate(-124.198) scale(6.68577 9.47568)">
<stop offset="0.657" stop-color="#2F5086" stop-opacity="0"/>
<stop offset="0.891" stop-color="#2F5086"/>
</radialGradient>
<linearGradient id="paint10_linear_22_849" x1="76.3976" y1="34.1781" x2="62.8018" y2="29.8689" gradientUnits="userSpaceOnUse">
<stop offset="0.214" stop-color="#9A979D"/>
<stop offset="1" stop-color="#9A979D" stop-opacity="0"/>
</linearGradient>
<radialGradient id="paint11_radial_22_849" cx="0" cy="0" r="1" gradientUnits="userSpaceOnUse" gradientTransform="translate(82.0363 8.39682) rotate(180) scale(12.7461 3.77105)">
<stop stop-color="#969698"/>
<stop offset="1" stop-color="#969698" stop-opacity="0"/>
</radialGradient>
<radialGradient id="paint12_radial_22_849" cx="0" cy="0" r="1" gradientUnits="userSpaceOnUse" gradientTransform="translate(72.7411 34.9117) rotate(-70.8376) scale(32.1785 20.7221)">
<stop offset="0.891" stop-color="#9E9AA6" stop-opacity="0"/>
<stop offset="0.979" stop-color="#9E9AA6"/>
</radialGradient>
<radialGradient id="paint13_radial_22_849" cx="0" cy="0" r="1" gradientUnits="userSpaceOnUse" gradientTransform="translate(81.8801 8.25157) rotate(109.198) scale(43.858 18.4965)">
<stop offset="0.95" stop-color="#AFAAB3" stop-opacity="0"/>
<stop offset="1" stop-color="#92889E"/>
</radialGradient>
<linearGradient id="paint14_linear_22_849" x1="79.1535" y1="3.92969" x2="82.7967" y2="3.92969" gradientUnits="userSpaceOnUse">
<stop stop-color="#386CAA"/>
<stop offset="1" stop-color="#386CAA" stop-opacity="0"/>
</linearGradient>
<linearGradient id="paint15_linear_22_849" x1="7.23469" y1="11.6195" x2="82.0854" y2="11.6195" gradientUnits="userSpaceOnUse">
<stop stop-color="#C6C4C9"/>
<stop offset="1" stop-color="#C6C4C9" stop-opacity="0"/>
</linearGradient>
<linearGradient id="paint16_linear_22_849" x1="16.5782" y1="41.943" x2="21.4358" y2="16.8887" gradientUnits="userSpaceOnUse">
<stop stop-color="#D4D1D7"/>
<stop offset="1" stop-color="#C6C4C9" stop-opacity="0"/>
</linearGradient>
</defs>
</svg>
