<svg width="99" height="13" viewBox="0 0 99 13" fill="none" xmlns="http://www.w3.org/2000/svg">
<path d="M7.368 0.636V9H6.276V5.208H2.016V9H0.924V0.636H2.016V4.308H6.276V0.636H7.368ZM12.7798 9.072C12.5718 9.072 12.3958 9 12.2518 8.856C12.1078 8.712 12.0358 8.536 12.0358 8.328C12.0358 8.12 12.1078 7.944 12.2518 7.8C12.3958 7.656 12.5718 7.584 12.7798 7.584C12.9798 7.584 13.1478 7.656 13.2838 7.8C13.4278 7.944 13.4998 8.12 13.4998 8.328C13.4998 8.536 13.4278 8.712 13.2838 8.856C13.1478 9 12.9798 9.072 12.7798 9.072ZM12.7798 3.936C12.5718 3.936 12.3958 3.864 12.2518 3.72C12.1078 3.576 12.0358 3.4 12.0358 3.192C12.0358 2.984 12.1078 2.808 12.2518 2.664C12.3958 2.52 12.5718 2.448 12.7798 2.448C12.9798 2.448 13.1478 2.52 13.2838 2.664C13.4278 2.808 13.4998 2.984 13.4998 3.192C13.4998 3.4 13.4278 3.576 13.2838 3.72C13.1478 3.864 12.9798 3.936 12.7798 3.936ZM19.5897 4.488C19.1417 4.312 18.7977 4.056 18.5577 3.72C18.3177 3.384 18.1977 2.976 18.1977 2.496C18.1977 2.064 18.3057 1.676 18.5217 1.332C18.7377 0.98 19.0577 0.704 19.4817 0.504C19.9137 0.296 20.4337 0.192 21.0417 0.192C21.6497 0.192 22.1657 0.296 22.5897 0.504C23.0217 0.704 23.3457 0.98 23.5617 1.332C23.7857 1.676 23.8977 2.064 23.8977 2.496C23.8977 2.96 23.7737 3.368 23.5257 3.72C23.2777 4.064 22.9377 4.32 22.5057 4.488C23.0017 4.64 23.3937 4.908 23.6817 5.292C23.9777 5.668 24.1257 6.124 24.1257 6.66C24.1257 7.18 23.9977 7.636 23.7417 8.028C23.4857 8.412 23.1217 8.712 22.6497 8.928C22.1857 9.136 21.6497 9.24 21.0417 9.24C20.4337 9.24 19.8977 9.136 19.4337 8.928C18.9777 8.712 18.6217 8.412 18.3657 8.028C18.1097 7.636 17.9817 7.18 17.9817 6.66C17.9817 6.124 18.1257 5.664 18.4137 5.28C18.7017 4.896 19.0937 4.632 19.5897 4.488ZM22.8417 2.628C22.8417 2.14 22.6817 1.764 22.3617 1.5C22.0417 1.236 21.6017 1.104 21.0417 1.104C20.4897 1.104 20.0537 1.236 19.7337 1.5C19.4137 1.764 19.2537 2.144 19.2537 2.64C19.2537 3.088 19.4177 3.448 19.7457 3.72C20.0817 3.992 20.5137 4.128 21.0417 4.128C21.5777 4.128 22.0097 3.992 22.3377 3.72C22.6737 3.44 22.8417 3.076 22.8417 2.628ZM21.0417 4.968C20.4497 4.968 19.9657 5.108 19.5897 5.388C19.2137 5.66 19.0257 6.072 19.0257 6.624C19.0257 7.136 19.2057 7.548 19.5657 7.86C19.9337 8.172 20.4257 8.328 21.0417 8.328C21.6577 8.328 22.1457 8.172 22.5057 7.86C22.8657 7.548 23.0457 7.136 23.0457 6.624C23.0457 6.088 22.8617 5.68 22.4937 5.4C22.1257 5.112 21.6417 4.968 21.0417 4.968ZM26.848 3.636C27.064 3.26 27.384 2.948 27.808 2.7C28.24 2.444 28.74 2.316 29.308 2.316C29.892 2.316 30.42 2.456 30.892 2.736C31.372 3.016 31.748 3.412 32.02 3.924C32.292 4.428 32.428 5.016 32.428 5.688C32.428 6.352 32.292 6.944 32.02 7.464C31.748 7.984 31.372 8.388 30.892 8.676C30.42 8.964 29.892 9.108 29.308 9.108C28.748 9.108 28.252 8.984 27.82 8.736C27.396 8.48 27.072 8.164 26.848 7.788V12.12H25.756V2.424H26.848V3.636ZM31.312 5.688C31.312 5.192 31.212 4.76 31.012 4.392C30.812 4.024 30.54 3.744 30.196 3.552C29.86 3.36 29.488 3.264 29.08 3.264C28.68 3.264 28.308 3.364 27.964 3.564C27.628 3.756 27.356 4.04 27.148 4.416C26.948 4.784 26.848 5.212 26.848 5.7C26.848 6.196 26.948 6.632 27.148 7.008C27.356 7.376 27.628 7.66 27.964 7.86C28.308 8.052 28.68 8.148 29.08 8.148C29.488 8.148 29.86 8.052 30.196 7.86C30.54 7.66 30.812 7.376 31.012 7.008C31.212 6.632 31.312 6.192 31.312 5.688ZM37.2974 9L35.7374 6.552L34.2374 9H33.0974L35.2214 5.736L33.0974 2.424H34.3334L35.8934 4.86L37.3814 2.424H38.5214L36.4094 5.676L38.5334 9H37.2974ZM53.3188 0.636L50.8948 9H49.6708L47.7268 2.268L45.7108 9L44.4988 9.012L42.1588 0.636H43.3228L45.1468 7.728L47.1628 0.636H48.3868L50.3068 7.704L52.1428 0.636H53.3188ZM58.0611 9.072C57.8531 9.072 57.6771 9 57.5331 8.856C57.3891 8.712 57.3171 8.536 57.3171 8.328C57.3171 8.12 57.3891 7.944 57.5331 7.8C57.6771 7.656 57.8531 7.584 58.0611 7.584C58.2611 7.584 58.4291 7.656 58.5651 7.8C58.7091 7.944 58.7811 8.12 58.7811 8.328C58.7811 8.536 58.7091 8.712 58.5651 8.856C58.4291 9 58.2611 9.072 58.0611 9.072ZM58.0611 3.936C57.8531 3.936 57.6771 3.864 57.5331 3.72C57.3891 3.576 57.3171 3.4 57.3171 3.192C57.3171 2.984 57.3891 2.808 57.5331 2.664C57.6771 2.52 57.8531 2.448 58.0611 2.448C58.2611 2.448 58.4291 2.52 58.5651 2.664C58.7091 2.808 58.7811 2.984 58.7811 3.192C58.7811 3.4 58.7091 3.576 58.5651 3.72C58.4291 3.864 58.2611 3.936 58.0611 3.936ZM63.155 8.124C64.171 7.308 64.967 6.64 65.543 6.12C66.119 5.592 66.603 5.044 66.995 4.476C67.395 3.9 67.595 3.336 67.595 2.784C67.595 2.264 67.467 1.856 67.211 1.56C66.963 1.256 66.559 1.104 65.999 1.104C65.455 1.104 65.031 1.276 64.727 1.62C64.431 1.956 64.271 2.408 64.247 2.976H63.191C63.223 2.08 63.495 1.388 64.007 0.9C64.519 0.411999 65.179 0.167999 65.987 0.167999C66.811 0.167999 67.463 0.395999 67.943 0.852C68.431 1.308 68.675 1.936 68.675 2.736C68.675 3.4 68.475 4.048 68.075 4.68C67.683 5.304 67.235 5.856 66.731 6.336C66.227 6.808 65.583 7.36 64.799 7.992H68.927V8.904H63.155V8.124ZM71.7733 4.488C71.3253 4.312 70.9813 4.056 70.7413 3.72C70.5013 3.384 70.3813 2.976 70.3813 2.496C70.3813 2.064 70.4893 1.676 70.7053 1.332C70.9213 0.98 71.2413 0.704 71.6653 0.504C72.0973 0.296 72.6173 0.192 73.2253 0.192C73.8333 0.192 74.3493 0.296 74.7733 0.504C75.2053 0.704 75.5293 0.98 75.7453 1.332C75.9693 1.676 76.0813 2.064 76.0813 2.496C76.0813 2.96 75.9573 3.368 75.7093 3.72C75.4613 4.064 75.1213 4.32 74.6893 4.488C75.1853 4.64 75.5773 4.908 75.8653 5.292C76.1613 5.668 76.3093 6.124 76.3093 6.66C76.3093 7.18 76.1813 7.636 75.9253 8.028C75.6693 8.412 75.3053 8.712 74.8333 8.928C74.3693 9.136 73.8333 9.24 73.2253 9.24C72.6173 9.24 72.0813 9.136 71.6173 8.928C71.1613 8.712 70.8053 8.412 70.5493 8.028C70.2933 7.636 70.1653 7.18 70.1653 6.66C70.1653 6.124 70.3093 5.664 70.5973 5.28C70.8853 4.896 71.2773 4.632 71.7733 4.488ZM75.0253 2.628C75.0253 2.14 74.8653 1.764 74.5453 1.5C74.2253 1.236 73.7853 1.104 73.2253 1.104C72.6733 1.104 72.2373 1.236 71.9173 1.5C71.5973 1.764 71.4373 2.144 71.4373 2.64C71.4373 3.088 71.6013 3.448 71.9293 3.72C72.2653 3.992 72.6973 4.128 73.2253 4.128C73.7613 4.128 74.1933 3.992 74.5213 3.72C74.8573 3.44 75.0253 3.076 75.0253 2.628ZM73.2253 4.968C72.6333 4.968 72.1493 5.108 71.7733 5.388C71.3973 5.66 71.2093 6.072 71.2093 6.624C71.2093 7.136 71.3893 7.548 71.7493 7.86C72.1173 8.172 72.6093 8.328 73.2253 8.328C73.8413 8.328 74.3293 8.172 74.6893 7.86C75.0493 7.548 75.2293 7.136 75.2293 6.624C75.2293 6.088 75.0453 5.68 74.6773 5.4C74.3093 5.112 73.8253 4.968 73.2253 4.968ZM77.7596 4.572C77.7596 3.196 77.9836 2.124 78.4316 1.356C78.8796 0.58 79.6636 0.192 80.7836 0.192C81.8956 0.192 82.6756 0.58 83.1236 1.356C83.5716 2.124 83.7956 3.196 83.7956 4.572C83.7956 5.972 83.5716 7.06 83.1236 7.836C82.6756 8.612 81.8956 9 80.7836 9C79.6636 9 78.8796 8.612 78.4316 7.836C77.9836 7.06 77.7596 5.972 77.7596 4.572ZM82.7156 4.572C82.7156 3.876 82.6676 3.288 82.5716 2.808C82.4836 2.32 82.2956 1.928 82.0076 1.632C81.7276 1.336 81.3196 1.188 80.7836 1.188C80.2396 1.188 79.8236 1.336 79.5356 1.632C79.2556 1.928 79.0676 2.32 78.9716 2.808C78.8836 3.288 78.8396 3.876 78.8396 4.572C78.8396 5.292 78.8836 5.896 78.9716 6.384C79.0676 6.872 79.2556 7.264 79.5356 7.56C79.8236 7.856 80.2396 8.004 80.7836 8.004C81.3196 8.004 81.7276 7.856 82.0076 7.56C82.2956 7.264 82.4836 6.872 82.5716 6.384C82.6676 5.896 82.7156 5.292 82.7156 4.572ZM86.5668 3.636C86.7828 3.26 87.1028 2.948 87.5268 2.7C87.9588 2.444 88.4588 2.316 89.0268 2.316C89.6108 2.316 90.1388 2.456 90.6108 2.736C91.0908 3.016 91.4668 3.412 91.7388 3.924C92.0108 4.428 92.1468 5.016 92.1468 5.688C92.1468 6.352 92.0108 6.944 91.7388 7.464C91.4668 7.984 91.0908 8.388 90.6108 8.676C90.1388 8.964 89.6108 9.108 89.0268 9.108C88.4668 9.108 87.9708 8.984 87.5388 8.736C87.1148 8.48 86.7908 8.164 86.5668 7.788V12.12H85.4748V2.424H86.5668V3.636ZM91.0308 5.688C91.0308 5.192 90.9308 4.76 90.7308 4.392C90.5308 4.024 90.2588 3.744 89.9148 3.552C89.5788 3.36 89.2068 3.264 88.7988 3.264C88.3988 3.264 88.0268 3.364 87.6828 3.564C87.3468 3.756 87.0748 4.04 86.8668 4.416C86.6668 4.784 86.5668 5.212 86.5668 5.7C86.5668 6.196 86.6668 6.632 86.8668 7.008C87.0748 7.376 87.3468 7.66 87.6828 7.86C88.0268 8.052 88.3988 8.148 88.7988 8.148C89.2068 8.148 89.5788 8.052 89.9148 7.86C90.2588 7.66 90.5308 7.376 90.7308 7.008C90.9308 6.632 91.0308 6.192 91.0308 5.688ZM97.0162 9L95.4562 6.552L93.9562 9H92.8162L94.9402 5.736L92.8162 2.424H94.0522L95.6122 4.86L97.1002 2.424H98.2402L96.1282 5.676L98.2522 9H97.0162Z" fill="#121212"/>
</svg>
