<svg width="24" height="25" viewBox="0 0 24 25" fill="none" xmlns="http://www.w3.org/2000/svg">
<path d="M12 2.11143C6.48 2.11143 2 6.59143 2 12.1114C2 17.6314 6.48 22.1114 12 22.1114C17.52 22.1114 22 17.6314 22 12.1114C22 6.59143 17.52 2.11143 12 2.11143ZM12 6.11143C13.93 6.11143 15.5 7.68143 15.5 9.61143C15.5 11.5414 13.93 13.1114 12 13.1114C10.07 13.1114 8.5 11.5414 8.5 9.61143C8.5 7.68143 10.07 6.11143 12 6.11143ZM12 20.1114C9.97 20.1114 7.57 19.2914 5.86 17.2314C7.6116 15.8572 9.77362 15.1102 12 15.1102C14.2264 15.1102 16.3884 15.8572 18.14 17.2314C16.43 19.2914 14.03 20.1114 12 20.1114Z" fill="#747474"/>
</svg>
