<svg width="22" height="25" viewBox="0 0 22 25" fill="none" xmlns="http://www.w3.org/2000/svg">
<g opacity="0.24" clip-path="url(#clip0_22_906)">
<path d="M9 7.30205C6.47 7.30205 4.41666 9.54205 4.41666 12.302C4.41666 15.062 6.47 17.302 9 17.302C11.53 17.302 13.5833 15.062 13.5833 12.302C13.5833 9.54205 11.53 7.30205 9 7.30205ZM9 2.30205C3.94 2.30205 -0.166672 6.78205 -0.166672 12.302C-0.166672 17.822 3.94 22.302 9 22.302C14.06 22.302 18.1667 17.822 18.1667 12.302C18.1667 6.78205 14.06 2.30205 9 2.30205ZM9 20.302C4.94833 20.302 1.66666 16.722 1.66666 12.302C1.66666 7.88205 4.94833 4.30205 9 4.30205C13.0517 4.30205 16.3333 7.88205 16.3333 12.302C16.3333 16.722 13.0517 20.302 9 20.302Z" fill="#FAFF00"/>
</g>
<defs>
<clipPath id="clip0_22_906">
<rect width="22" height="24" fill="white" transform="translate(0 0.302048)"/>
</clipPath>
</defs>
</svg>
