<svg width="24" height="25" viewBox="0 0 24 25" fill="none" xmlns="http://www.w3.org/2000/svg">
<path d="M11.5 21.8614C5.85 21.8614 1.25 17.2614 1.25 11.6114C1.25 5.96143 5.85 1.36143 11.5 1.36143C17.15 1.36143 21.75 5.96143 21.75 11.6114C21.75 17.2614 17.15 21.8614 11.5 21.8614ZM11.5 2.86143C6.67 2.86143 2.75 6.79143 2.75 11.6114C2.75 16.4314 6.67 20.3614 11.5 20.3614C16.33 20.3614 20.25 16.4314 20.25 11.6114C20.25 6.79143 16.33 2.86143 11.5 2.86143Z" fill="#B9BBBC"/>
<path d="M22 22.8614C21.81 22.8614 21.62 22.7914 21.47 22.6414L19.47 20.6414C19.18 20.3514 19.18 19.8714 19.47 19.5814C19.76 19.2914 20.24 19.2914 20.53 19.5814L22.53 21.5814C22.82 21.8714 22.82 22.3514 22.53 22.6414C22.38 22.7914 22.19 22.8614 22 22.8614Z" fill="#B9BBBC"/>
</svg>
